<?xml version="1.0" standalone="no"?><!DOCTYPE svg PUBLIC "-//W3C//DTD SVG 1.1//EN" "http://www.w3.org/Graphics/SVG/1.1/DTD/svg11.dtd"><svg t="1616607126679" class="icon" viewBox="0 0 1024 1024" version="1.1" xmlns="http://www.w3.org/2000/svg" p-id="2774" xmlns:xlink="http://www.w3.org/1999/xlink" width="32" height="32"><defs><style type="text/css"></style></defs><path d="M511.214933 136.533333c23.995733 0 46.6944 12.9024 64.853334 35.5328l5.12 6.9632L658.773333 297.096533c11.195733 17.066667 28.2624 29.4912 47.991467 34.816l110.660267 30.037334 10.171733 3.2768c30.037333 11.4688 49.732267 29.4912 57.002667 53.725866 6.826667 22.8352 1.570133 47.5136-14.677334 73.284267l-4.266666 6.4512-89.088 119.808c-9.216 12.3904-13.789867 27.648-12.9024 43.1104l7.168 126.532267-0.341334 18.2272c-5.358933 54.920533-35.498667 79.189333-74.308266 79.189333-10.8544 0-22.6304-2.048-35.805867-6.314667l-128.580267-47.786666a83.694933 83.694933 0 0 0-54.203733-1.4336l-6.5536 2.389333-109.568 44.578133C341.8112 884.053333 326.656 887.466667 313.105067 887.466667c-19.456 0-35.9424-7.031467-47.684267-20.821334-14.574933-17.032533-19.6608-41.710933-16.827733-73.693866l4.096-144.145067a83.729067 83.729067 0 0 0-17.92-54.203733L162.474667 502.920533l-11.605334-17.646933c-14.301867-26.965333-18.1248-51.370667-10.478933-73.5232 7.611733-22.050133 25.6-38.229333 52.394667-48.401067l6.894933-2.389333 131.515733-40.0384c17.408-5.256533 32.529067-16.042667 43.178667-30.549333l3.7888-5.632 64.2048-104.311467C461.7216 150.084267 485.956267 136.533333 511.214933 136.533333z m37.546667 56.081067c-11.844267-14.5408-25.088-21.947733-37.546667-21.947733-12.356267 0-24.6784 6.314667-36.6592 23.074133l-3.2768 4.8128-64.034133 104.072533a117.8624 117.8624 0 0 1-66.116267 50.961067L209.92 393.489067c-20.923733 6.826667-32.904533 16.759467-37.2736 29.3888-4.1984 12.151467-1.8432 27.136 7.509333 44.9536l9.9328 15.086933 71.509334 90.555733c17.1008 21.674667 26.043733 48.708267 25.258666 76.288l-4.164266 145.169067c-2.1504 24.712533 1.1264 40.686933 8.704 49.5616 5.0176 5.905067 11.946667 8.840533 21.742933 8.840533 7.68 0 17.237333-1.877333 29.5936-5.973333l6.417067-2.218667 108.987733-44.373333a117.828267 117.828267 0 0 1 85.538133-1.262933l127.829334 47.5136c9.250133 2.9696 17.578667 4.437333 24.644266 4.437333 22.016 0 36.7616-11.8784 40.277334-47.0016l0.273066-15.598933-7.168-125.269334a100.0448 100.0448 0 0 1 15.223467-59.050666l4.437333-6.417067 88.746667-119.364267c12.3904-17.851733 17.032533-33.109333 14.882133-45.841066l-0.955733-4.164267-1.399467-3.822933c-4.9152-11.264-16.213333-20.5824-34.133333-27.477334l-8.567467-2.730666-109.9776-29.832534a117.725867 117.725867 0 0 1-67.584-49.083733L552.584533 197.632l-3.822933-5.0176z" p-id="2775"></path><path d="M401.271467 483.1232a24.064 24.064 0 1 1 0 48.128h-28.8768a24.064 24.064 0 0 1 0-48.128h28.8768z m240.708266 0a24.064 24.064 0 1 1 0 48.128h-144.418133a24.064 24.064 0 1 1 0-48.128h144.384z" p-id="2776"></path></svg>