<?xml version="1.0" standalone="no"?><!DOCTYPE svg PUBLIC "-//W3C//DTD SVG 1.1//EN" "http://www.w3.org/Graphics/SVG/1.1/DTD/svg11.dtd"><svg t="1616607348337" class="icon" viewBox="0 0 1024 1024" version="1.1" xmlns="http://www.w3.org/2000/svg" p-id="10214" xmlns:xlink="http://www.w3.org/1999/xlink" width="32" height="32"><defs><style type="text/css"></style></defs><path d="M460.8 798.72H64.853333a61.44 61.44 0 0 1-59.733333-59.733333V206.506667a160.426667 160.426667 0 0 1 158.72-160.426667H460.8a160.426667 160.426667 0 0 1 158.72 158.72v435.2a160.426667 160.426667 0 0 1-158.72 158.72zM163.84 98.986667A107.52 107.52 0 0 0 56.32 204.8v534.186667a8.533333 8.533333 0 0 0 8.533333 8.533333H460.8a107.52 107.52 0 0 0 105.813333-105.813333V206.506667A107.52 107.52 0 0 0 460.8 98.986667zM952.32 1003.52h-358.4a163.84 163.84 0 0 1-162.133333-162.133333 25.6 25.6 0 1 1 52.906666 0 110.933333 110.933333 0 0 0 110.933334 110.933333h358.4a8.533333 8.533333 0 0 0 8.533333-8.533333v-42.666667a25.6 25.6 0 0 1 52.906667 0v42.666667a61.44 61.44 0 0 1-63.146667 59.733333zM986.453333 781.653333a25.6 25.6 0 0 1-25.6-25.6V411.306667a107.52 107.52 0 0 0-107.52-107.52H662.186667a25.6 25.6 0 0 1 0-52.906667H853.333333a160.426667 160.426667 0 0 1 158.72 158.72v346.453333a25.6 25.6 0 0 1-25.6 25.6z" fill="#040000" p-id="10215"></path><path d="M312.32 605.866667a121.173333 121.173333 0 0 1-121.173333-121.173334V358.4a121.173333 121.173333 0 0 1 240.64 0v126.293333a25.6 25.6 0 0 1-52.906667 0V358.4a68.266667 68.266667 0 0 0-134.826667 0v126.293333a68.266667 68.266667 0 0 0 68.266667 68.266667 25.6 25.6 0 0 1 0 52.906667z" fill="#040000" p-id="10216"></path><path d="M404.48 607.573333a25.6 25.6 0 0 1-18.773333-8.533333l-92.16-92.16a25.6 25.6 0 0 1 37.546666-37.546667l92.16 93.866667a25.6 25.6 0 0 1-18.773333 44.373333z" fill="#040000" p-id="10217"></path><path d="M643.413333 820.906667h-8.533333a25.6 25.6 0 0 1-15.36-34.133334L733.866667 476.16a25.6 25.6 0 0 1 49.493333 18.773333l-114.346667 307.2a27.306667 27.306667 0 0 1-25.6 18.773334z" fill="#040000" p-id="10218"></path><path d="M878.933333 820.906667A27.306667 27.306667 0 0 1 853.333333 802.133333l-112.64-310.613333a25.6 25.6 0 0 1 49.493334-18.773333L902.826667 785.066667a25.6 25.6 0 0 1-15.36 34.133333z" fill="#040000" p-id="10219"></path><path d="M878.933333 820.906667A27.306667 27.306667 0 0 1 853.333333 802.133333l-8.533333-20.48a25.6 25.6 0 1 1 49.493333-18.773333l8.533334 20.48a25.6 25.6 0 0 1-15.36 34.133333zM848.213333 738.986667h-107.52a25.6 25.6 0 1 1 0-52.906667h107.52a25.6 25.6 0 1 1 0 52.906667z" fill="#040000" p-id="10220"></path></svg>